<?xml version="1.0" encoding="utf-8"?>
<!-- Generator: Adobe Illustrator 26.5.0, SVG Export Plug-In . SVG Version: 6.00 Build 0)  -->
<svg version="1.1" id="Layer_1" xmlns="http://www.w3.org/2000/svg" xmlns:xlink="http://www.w3.org/1999/xlink" x="0px" y="0px"
	 viewBox="0 0 100 100" style="enable-background:new 0 0 100 100;" xml:space="preserve">
<style type="text/css">
	.st0{fill:#17170A;}
	.st1{fill:#FAFF73;}
</style>
<polygon points="1.11,54.25 1.08,54.25 1.08,54.2 "/>
<g>
	<g>
		<polygon class="st0" points="49.28,38.59 49.28,44.13 39.26,44.13 42.98,38.59 		"/>
		<polygon class="st1" points="50.95,60.2 50.95,65.75 24.8,65.75 24.8,65.69 17.63,76.39 13.03,73.3 32.58,44.13 35.92,39.16 
			36.29,38.59 41.14,31.37 44.85,25.83 46.34,23.61 50.95,26.7 49.28,29.2 47.82,31.37 42.98,38.59 39.26,44.13 39.25,44.13 
			35.92,49.11 35.92,49.12 28.49,60.2 		"/>
		<polygon class="st0" points="41.14,31.37 30.69,31.37 35.54,38.59 36.29,38.59 35.92,39.16 32.58,44.13 32.56,44.1 24.02,31.37 
			22.41,28.96 20.89,26.7 25.49,23.61 26.98,25.83 44.85,25.83 		"/>
		<polygon class="st0" points="50.03,60.2 43.34,60.2 35.92,49.12 35.92,49.11 39.25,44.13 39.26,44.13 		"/>
	</g>
	<path class="st1" d="M28.7,72.88h-2.07l-0.74,3.51h-2.03l2.07-9.76h4.25c0.98,0,1.71,0.25,2.18,0.75c0.47,0.5,0.6,1.28,0.38,2.34
		c-0.25,1.15-0.71,1.97-1.4,2.44S29.79,72.88,28.7,72.88z M29.5,68.33h-1.9l-0.61,2.87h1.9c0.48,0,0.88-0.12,1.2-0.35
		s0.53-0.6,0.64-1.11c0.11-0.51,0.05-0.87-0.17-1.09C30.33,68.43,29.98,68.33,29.5,68.33z"/>
	<path class="st1" d="M35.87,76.39c-1.24,0-2.09-0.38-2.53-1.13c-0.45-0.75-0.56-1.66-0.33-2.72c0.22-1.04,0.72-1.94,1.49-2.71
		c0.77-0.76,1.78-1.14,3.02-1.14c1.24,0,2.08,0.38,2.53,1.14c0.45,0.76,0.56,1.67,0.34,2.71c-0.23,1.06-0.72,1.97-1.49,2.72
		C38.11,76.01,37.11,76.39,35.87,76.39z M38.4,72.54c0.15-0.72,0.12-1.28-0.09-1.67c-0.21-0.39-0.6-0.59-1.15-0.59
		c-0.55,0-1.02,0.2-1.4,0.59c-0.38,0.39-0.65,0.95-0.8,1.67c-0.15,0.73-0.13,1.28,0.09,1.68c0.21,0.39,0.6,0.59,1.15,0.59
		c0.55,0,1.02-0.2,1.4-0.59C37.98,73.83,38.24,73.27,38.4,72.54z"/>
	<path class="st1" d="M46.68,69.01l-0.41,1.93c-0.11-0.01-0.22-0.02-0.31-0.03c-0.09,0-0.17-0.01-0.23-0.01
		c-0.76,0-1.32,0.25-1.69,0.74c-0.2,0.28-0.37,0.71-0.49,1.29l-0.73,3.45h-1.9l1.53-7.22h1.8l-0.26,1.26
		c0.39-0.48,0.72-0.81,0.97-0.99c0.42-0.3,0.91-0.44,1.48-0.44c0.04,0,0.06,0,0.09,0C46.54,69.01,46.6,69.01,46.68,69.01z"/>
	<path class="st1" d="M46.68,70.48l0.28-1.35h1.01l0.43-2.01h1.87l-0.43,2.01h1.17l-0.28,1.35h-1.17l-0.81,3.81
		c-0.06,0.3-0.06,0.48,0,0.55c0.06,0.07,0.28,0.11,0.67,0.11c0.06,0,0.12,0,0.18,0c0.06,0,0.13,0,0.19-0.01l-0.3,1.41l-0.9,0.03
		c-0.9,0.03-1.47-0.12-1.73-0.47c-0.16-0.21-0.2-0.55-0.11-1l0.95-4.44H46.68z"/>
	<path class="st1" d="M53.87,76.39c-1.24,0-2.09-0.38-2.53-1.13c-0.45-0.75-0.56-1.66-0.33-2.72c0.22-1.04,0.72-1.94,1.49-2.71
		c0.77-0.76,1.78-1.14,3.02-1.14c1.24,0,2.08,0.38,2.53,1.14c0.45,0.76,0.56,1.67,0.34,2.71c-0.23,1.06-0.72,1.97-1.49,2.72
		C56.11,76.01,55.11,76.39,53.87,76.39z M56.4,72.54c0.15-0.72,0.12-1.28-0.09-1.67c-0.21-0.39-0.6-0.59-1.15-0.59
		s-1.02,0.2-1.4,0.59c-0.38,0.39-0.65,0.95-0.8,1.67c-0.15,0.73-0.13,1.28,0.09,1.68c0.21,0.39,0.6,0.59,1.15,0.59
		s1.02-0.2,1.4-0.59C55.97,73.83,56.24,73.27,56.4,72.54z"/>
	<path class="st1" d="M64.41,66.57l-0.33,1.54c-0.1-0.01-0.28-0.02-0.52-0.03c-0.25-0.01-0.43,0.05-0.55,0.17
		c-0.12,0.12-0.2,0.25-0.22,0.39c-0.03,0.14-0.08,0.34-0.13,0.61h1.24l-0.29,1.33h-1.24l-1.23,5.82h-1.88l1.23-5.82h-1.05l0.28-1.33
		h1.03l0.1-0.46c0.16-0.77,0.41-1.31,0.73-1.6c0.36-0.43,1.07-0.65,2.12-0.65c0.12,0,0.23,0,0.32,0.01
		C64.11,66.55,64.24,66.56,64.41,66.57z"/>
	<path class="st1" d="M66.61,76.39c-1.24,0-2.09-0.38-2.53-1.13c-0.45-0.75-0.56-1.66-0.34-2.72c0.22-1.04,0.72-1.94,1.49-2.71
		c0.77-0.76,1.78-1.14,3.02-1.14c1.24,0,2.08,0.38,2.53,1.14c0.45,0.76,0.56,1.67,0.34,2.71c-0.23,1.06-0.72,1.97-1.49,2.72
		C68.86,76.01,67.85,76.39,66.61,76.39z M69.14,72.54c0.15-0.72,0.13-1.28-0.09-1.67c-0.21-0.39-0.6-0.59-1.15-0.59
		s-1.02,0.2-1.4,0.59c-0.38,0.39-0.65,0.95-0.8,1.67c-0.15,0.73-0.12,1.28,0.09,1.68c0.21,0.39,0.6,0.59,1.15,0.59
		c0.55,0,1.02-0.2,1.4-0.59C68.72,73.83,68.99,73.27,69.14,72.54z"/>
	<path class="st1" d="M73.61,76.39h-1.89l2.07-9.76h1.89L73.61,76.39z"/>
	<path class="st1" d="M76.98,69.17h1.91l-1.53,7.22h-1.91L76.98,69.17z M79.08,68.31h-1.91l0.37-1.74h1.91L79.08,68.31z"/>
	<path class="st1" d="M82.35,76.39c-1.24,0-2.09-0.38-2.53-1.13c-0.45-0.75-0.56-1.66-0.34-2.72c0.22-1.04,0.72-1.94,1.49-2.71
		c0.77-0.76,1.78-1.14,3.02-1.14c1.24,0,2.08,0.38,2.53,1.14c0.45,0.76,0.56,1.67,0.34,2.71c-0.23,1.06-0.72,1.97-1.49,2.72
		C84.6,76.01,83.59,76.39,82.35,76.39z M84.88,72.54c0.15-0.72,0.13-1.28-0.09-1.67c-0.21-0.39-0.6-0.59-1.15-0.59
		s-1.02,0.2-1.4,0.59c-0.38,0.39-0.65,0.95-0.8,1.67c-0.15,0.73-0.12,1.28,0.09,1.68c0.21,0.39,0.6,0.59,1.15,0.59
		c0.55,0,1.02-0.2,1.4-0.59C84.46,73.83,84.73,73.27,84.88,72.54z"/>
</g>
</svg>
